<?xml version="1.0" encoding="UTF-8" standalone="no"?>
<svg
   viewBox="0 0 407.6276 141.75454"
   height="141.75453"
   width="407.62759"
   xml:space="preserve"
   id="svg2"
   version="1.1"
   xmlns="http://www.w3.org/2000/svg"
   xmlns:svg="http://www.w3.org/2000/svg"
   xmlns:rdf="http://www.w3.org/1999/02/22-rdf-syntax-ns#"
   xmlns:cc="http://creativecommons.org/ns#"
   xmlns:dc="http://purl.org/dc/elements/1.1/"><metadata
     id="metadata8"><rdf:RDF><cc:Work
         rdf:about=""><dc:format>image/svg+xml</dc:format><dc:type
           rdf:resource="http://purl.org/dc/dcmitype/StillImage" /></cc:Work></rdf:RDF></metadata><defs
     id="defs6"><clipPath
       clipPathUnits="userSpaceOnUse"
       id="clipPath18"><g
         id="g19"
         transform="matrix(0.75000002,0,0,-0.75000002,-393.8165,384.82592)"><path
           id="path18"
           d="M 0,2e-5 H 666.66665 V 666.66667 H 0 Z"
           style="stroke-width:1.33333" /></g></clipPath><clipPath
       clipPathUnits="userSpaceOnUse"
       id="clipPath19"><g
         id="g21"
         transform="matrix(0.75000002,0,0,-0.75000002,-338.6752,396.81711)"><path
           id="path19"
           d="M 0,2e-5 H 666.66665 V 666.66667 H 0 Z"
           style="stroke-width:1.33333" /></g></clipPath><clipPath
       clipPathUnits="userSpaceOnUse"
       id="clipPath21"><g
         id="g23"
         transform="matrix(0.75000002,0,0,-0.75000002,-315.3005,410.82692)"><path
           id="path21"
           d="M 0,2e-5 H 666.66665 V 666.66667 H 0 Z"
           style="stroke-width:1.33333" /></g></clipPath><clipPath
       clipPathUnits="userSpaceOnUse"
       id="clipPath23"><g
         id="g24"
         transform="matrix(0.75000002,0,0,-0.75000002,-265.378,412.86542)"><path
           id="path23"
           d="M 0,2e-5 H 666.66665 V 666.66667 H 0 Z"
           style="stroke-width:1.33333" /></g></clipPath><clipPath
       clipPathUnits="userSpaceOnUse"
       id="clipPath24"><g
         id="g25"><path
           id="path24"
           d="M 0,2e-5 H 666.66665 V 666.66667 H 0 Z"
           style="stroke-width:1.33333" /></g></clipPath><clipPath
       clipPathUnits="userSpaceOnUse"
       id="clipPath25"><g
         id="g26"><path
           id="path25"
           d="M 0,2e-5 H 666.66665 V 666.66667 H 0 Z"
           style="stroke-width:1.33333" /></g></clipPath><clipPath
       clipPathUnits="userSpaceOnUse"
       id="clipPath26"><g
         id="g27"><path
           id="path26"
           d="M 0,2e-5 H 666.66665 V 666.66667 H 0 Z"
           style="stroke-width:1.33333" /></g></clipPath><clipPath
       clipPathUnits="userSpaceOnUse"
       id="clipPath27"><g
         id="g28"><path
           id="path27"
           d="M 0,2e-5 H 666.66665 V 666.66667 H 0 Z"
           style="stroke-width:1.33333" /></g></clipPath><clipPath
       clipPathUnits="userSpaceOnUse"
       id="clipPath28"><g
         id="g29"><path
           id="path28"
           d="M 0,2e-5 H 666.66665 V 666.66667 H 0 Z"
           style="stroke-width:1.33333" /></g></clipPath><clipPath
       clipPathUnits="userSpaceOnUse"
       id="clipPath29"><g
         id="g30"
         transform="matrix(0.75000002,0,0,-0.75000002,-180.2453,423.71972)"><path
           id="path29"
           d="M 0,2e-5 H 666.66665 V 666.66667 H 0 Z"
           style="stroke-width:1.33333" /></g></clipPath><clipPath
       clipPathUnits="userSpaceOnUse"
       id="clipPath30"><g
         id="g31"
         transform="matrix(0.75000002,0,0,-0.75000002,-111.6118,383.01681)"><path
           id="path30"
           d="M 0,2e-5 H 666.66665 V 666.66667 H 0 Z"
           style="stroke-width:1.33333" /></g></clipPath><clipPath
       clipPathUnits="userSpaceOnUse"
       id="clipPath31"><g
         id="g32"
         transform="matrix(0.75000002,0,0,-0.75000002,-133.5207,434.30292)"><path
           id="path31"
           d="M 0,2e-5 H 666.66665 V 666.66667 H 0 Z"
           style="stroke-width:1.33333" /></g></clipPath><clipPath
       clipPathUnits="userSpaceOnUse"
       id="clipPath32"><g
         id="g33"
         transform="matrix(0.75000002,0,0,-0.75000002,-142.1994,442.07721)"><path
           id="path32"
           d="M 0,2e-5 H 666.66665 V 666.66667 H 0 Z"
           style="stroke-width:1.33333" /></g></clipPath><clipPath
       clipPathUnits="userSpaceOnUse"
       id="clipPath33"><g
         id="g34"
         transform="matrix(0.75000002,0,0,-0.75000002,-152.0174,445.69562)"><path
           id="path33"
           d="M 0,2e-5 H 666.66665 V 666.66667 H 0 Z"
           style="stroke-width:1.33333" /></g></clipPath><clipPath
       clipPathUnits="userSpaceOnUse"
       id="clipPath34"><g
         id="g35"
         transform="matrix(0.75000002,0,0,-0.75000002,-165.2468,450.54552)"><path
           id="path34"
           d="M 0,2e-5 H 666.66665 V 666.66667 H 0 Z"
           style="stroke-width:1.33333" /></g></clipPath><clipPath
       clipPathUnits="userSpaceOnUse"
       id="clipPath35"><g
         id="g36"
         transform="matrix(0.75000002,0,0,-0.75000002,-185.504,448.24232)"><path
           id="path35"
           d="M 0,2e-5 H 666.66665 V 666.66667 H 0 Z"
           style="stroke-width:1.33333" /></g></clipPath><clipPath
       clipPathUnits="userSpaceOnUse"
       id="clipPath36"><g
         id="g37"
         transform="matrix(0.75000002,0,0,-0.75000002,-200.6912,447.15752)"><path
           id="path37"
           d="M 0,2e-5 H 666.66665 V 666.66667 H 0 Z"
           style="stroke-width:1.33333" /></g></clipPath><clipPath
       clipPathUnits="userSpaceOnUse"
       id="clipPath37"><g
         id="g39"
         transform="matrix(0.75000002,0,0,-0.75000002,-214.6574,445.32312)"><path
           id="path38"
           d="M 0,2e-5 H 666.66665 V 666.66667 H 0 Z"
           style="stroke-width:1.33333" /></g></clipPath><clipPath
       clipPathUnits="userSpaceOnUse"
       id="clipPath39"><g
         id="g41"
         transform="matrix(0.75000002,0,0,-0.75000002,-354.0187,411.05642)"><path
           id="path39"
           d="M 0,2e-5 H 666.66665 V 666.66667 H 0 Z"
           style="stroke-width:1.33333" /></g></clipPath><clipPath
       clipPathUnits="userSpaceOnUse"
       id="clipPath41"><g
         id="g42"
         transform="matrix(0.75000002,0,0,-0.75000002,-297.6611,351.62901)"><path
           id="path41"
           d="M 0,2e-5 H 666.66665 V 666.66667 H 0 Z"
           style="stroke-width:1.33333" /></g></clipPath><clipPath
       clipPathUnits="userSpaceOnUse"
       id="clipPath42"><g
         id="g43"
         transform="matrix(0.75000002,0,0,-0.75000002,-283.6292,352.86812)"><path
           id="path42"
           d="M 0,2e-5 H 666.66665 V 666.66667 H 0 Z"
           style="stroke-width:1.33333" /></g></clipPath><clipPath
       clipPathUnits="userSpaceOnUse"
       id="clipPath43"><g
         id="g44"
         transform="matrix(0.75000002,0,0,-0.75000002,-269.641,354.78291)"><path
           id="path43"
           d="M 0,2e-5 H 666.66665 V 666.66667 H 0 Z"
           style="stroke-width:1.33333" /></g></clipPath><clipPath
       clipPathUnits="userSpaceOnUse"
       id="clipPath44"><g
         id="g45"
         transform="matrix(0.75000002,0,0,-0.75000002,-255.7049,357.20591)"><path
           id="path44"
           d="M 0,2e-5 H 666.66665 V 666.66667 H 0 Z"
           style="stroke-width:1.33333" /></g></clipPath><clipPath
       clipPathUnits="userSpaceOnUse"
       id="clipPath45"><g
         id="g47"
         transform="matrix(0.75000002,0,0,-0.75000002,-241.8576,360.19701)"><path
           id="path45"
           d="M 0,2e-5 H 666.66665 V 666.66667 H 0 Z"
           style="stroke-width:1.33333" /></g></clipPath><clipPath
       clipPathUnits="userSpaceOnUse"
       id="clipPath47"><g
         id="g49"
         transform="matrix(0.75000002,0,0,-0.75000002,-228.1049,363.69992)"><path
           id="path47"
           d="M 0,2e-5 H 666.66665 V 666.66667 H 0 Z"
           style="stroke-width:1.33333" /></g></clipPath><clipPath
       clipPathUnits="userSpaceOnUse"
       id="clipPath49"><g
         id="g50"
         transform="matrix(0.75000002,0,0,-0.75000002,-221.1712,365.32251)"><path
           id="path49"
           d="M 0,2e-5 H 666.66665 V 666.66667 H 0 Z"
           style="stroke-width:1.33333" /></g></clipPath></defs><g
     id="g51"
     transform="translate(-129.51973,-461.00988)"><g
       transform="matrix(1.3333333,0,0,-1.3333333,294.89493,487.09667)"
       id="g358"
       clip-path="url(#clipPath49)"><path
         id="path360"
         style="fill:#f05a28;fill-opacity:1;fill-rule:nonzero;stroke:none"
         d="m 0,0 -3.359,-1.291 3.453,1.015 -0.065,0.191 z" /></g><g
       transform="matrix(1.3333333,0,0,-1.3333333,304.13986,484.93321)"
       id="g362"
       clip-path="url(#clipPath47)"><path
         id="path364"
         style="fill:#f05a28;fill-opacity:1;fill-rule:nonzero;stroke:none"
         d="M 0,0 6.876,1.806 6.51,3.026 6.484,3.11 -0.249,0.831 -0.204,0.681 Z" /></g><g
       transform="matrix(1.3333333,0,0,-1.3333333,322.47679,480.26267)"
       id="g366"
       clip-path="url(#clipPath45)"><path
         id="path368"
         style="fill:#f05a28;fill-opacity:1;fill-rule:nonzero;stroke:none"
         d="M 0,0 1.369,0.31 C 2.661,0.613 4.001,0.915 5.381,1.218 L 6.933,1.57 6.38,3.708 6.377,3.72 4.805,3.262 0.904,2.128 -0.448,1.734 -0.444,1.719 Z" /></g><g
       transform="matrix(1.3333333,0,0,-1.3333333,340.93986,476.27454)"
       id="g370"
       clip-path="url(#clipPath44)"><path
         id="path372"
         style="fill:#f05a28;fill-opacity:1;fill-rule:nonzero;stroke:none"
         d="M 0,0 3.533,0.653 C 4.505,0.832 5.444,1.015 6.445,1.191 L 6.99,1.291 6.341,4.296 6.34,4.301 6.108,4.243 0.667,2.894 -0.56,2.59 -0.559,2.584 Z" /></g><g
       transform="matrix(1.3333333,0,0,-1.3333333,359.52132,473.04387)"
       id="g374"
       clip-path="url(#clipPath43)"><path
         id="path376"
         style="fill:#404041;fill-opacity:1;fill-rule:nonzero;stroke:none"
         d="M 0,0 7.031,1.039 6.384,4.806 6.38,4.826 5.471,4.647 4.367,4.431 -0.594,3.457 -0.59,3.434 Z" /></g><g
       transform="matrix(1.3333333,0,0,-1.3333333,378.17226,470.49081)"
       id="g378"
       clip-path="url(#clipPath42)"><path
         id="path380"
         style="fill:#404041;fill-opacity:1;fill-rule:nonzero;stroke:none"
         d="M 0,0 7.071,0.718 6.525,5.137 6.524,5.146 6.194,5.098 6.122,5.088 -0.509,4.121 -0.506,4.099 Z" /></g><g
       transform="matrix(1.3333333,0,0,-1.3333333,396.88146,468.83867)"
       id="g382"
       clip-path="url(#clipPath41)"><path
         id="path384"
         style="fill:#404041;fill-opacity:1;fill-rule:nonzero;stroke:none"
         d="m 0,0 0.417,0.021 c 0.163,0.01 0.33,0.015 0.492,0.024 L 7.098,0.353 6.758,5.34 6.756,5.377 -0.324,4.76 -0.323,4.744 Z" /></g><g
       transform="matrix(1.3333333,0,0,-1.3333333,472.02492,548.07521)"
       id="g386"
       clip-path="url(#clipPath39)"><path
         id="path388"
         style="fill:#f05a28;fill-opacity:1;fill-rule:nonzero;stroke:none"
         d="m 0,0 c 0,-1.207 -0.604,-1.809 -1.809,-1.809 h -9.045 c -1.207,0 -1.809,0.602 -1.809,1.809 v 4.261 c 0.591,0.403 1.198,0.78 1.783,1.192 l 0.015,-0.02 1.575,1.17 2.854,2.12 1.272,0.945 -0.024,0.033 c 0.618,0.485 1.246,0.956 1.856,1.454 1.107,0.915 2.19,1.864 3.265,2.824 0.028,-0.131 0.064,-0.255 0.067,-0.412 z m 15.564,42.464 c -0.002,0.017 0,0.031 -0.002,0.047 -0.011,0.214 -0.035,0.375 -0.062,0.523 -0.002,0.021 -0.004,0.038 -0.007,0.06 -0.027,0.281 -0.081,0.408 -0.122,0.633 -0.107,0.472 -0.22,0.977 -0.334,1.481 -0.004,0.01 -0.007,0.02 -0.011,0.03 v 0.003 c -0.02,0.051 -0.038,0.104 -0.057,0.156 -0.18,0.503 -0.361,1.005 -0.53,1.477 -0.098,0.241 -0.205,0.566 -0.289,0.707 -0.07,0.137 -0.134,0.263 -0.197,0.386 -0.008,0.017 -0.013,0.036 -0.022,0.053 -0.009,0.017 -0.021,0.032 -0.029,0.049 -0.3,0.587 -0.499,0.978 -0.499,0.978 l -0.068,-0.033 c -1.496,2.588 -3.511,4.677 -5.697,6.339 l 0.039,0.049 c 0,0 -0.378,0.253 -0.945,0.632 -0.106,0.074 -0.207,0.164 -0.313,0.235 -0.244,0.164 -0.495,0.303 -0.741,0.459 -0.07,0.046 -0.123,0.081 -0.194,0.128 -0.403,0.254 -0.858,0.571 -1.268,0.799 -0.308,0.156 -0.613,0.31 -0.909,0.46 -0.785,0.397 -1.48,0.749 -1.886,0.954 C 1.19,59.186 1.044,59.26 1.044,59.26 l -0.01,-0.019 c -1.264,0.575 -2.537,1.094 -3.815,1.531 -1.202,0.404 -2.4,0.743 -3.599,1.08 l 0.016,0.063 -0.973,0.224 -5.254,1.209 -0.703,0.162 -0.009,-0.039 c -2.505,0.471 -4.996,0.833 -7.468,1.095 l 0.001,0.008 -0.177,0.013 -6.344,0.478 -0.568,0.043 -0.002,-0.018 c -2.481,0.114 -4.941,0.177 -7.362,0.186 v 0.023 l -1.85,-0.03 c -0.776,-0.003 -1.557,-0.001 -2.326,-0.009 -0.391,-0.008 -0.764,-0.038 -1.154,-0.048 l -1.777,-0.03 v -0.045 l 0.002,-5.213 1.813,-0.027 3.802,-0.057 c 2.976,-0.084 5.996,-0.236 9.038,-0.488 2.027,-0.168 4.057,-0.379 6.089,-0.652 2.55,-0.342 5.095,-0.778 7.618,-1.329 1.667,-0.364 3.324,-0.77 4.965,-1.242 1.368,-0.393 2.726,-0.821 4.069,-1.297 1.214,-0.448 2.416,-0.965 3.582,-1.532 0.699,-0.34 1.383,-0.7 2.045,-1.084 0.51,-0.296 0.999,-0.611 1.48,-0.934 0.274,-0.19 0.532,-0.37 0.752,-0.523 0.035,-0.024 0.051,-0.035 0.085,-0.058 2.112,-1.552 3.847,-3.381 4.867,-5.514 0.017,-0.036 0.031,-0.065 0.049,-0.102 0,0 10e-4,-0.002 0.002,-0.003 0.257,-0.521 0.39,-1.083 0.607,-1.617 l 0.017,-0.09 0.057,-0.297 0.112,-0.595 C 8.758,42.212 8.838,41.873 8.864,41.619 8.865,41.558 8.866,41.493 8.868,41.437 8.875,41.329 8.88,41.264 8.886,41.176 8.896,40.237 8.875,39.016 8.565,37.81 8.312,36.647 7.901,35.477 7.395,34.315 7.392,34.309 7.39,34.305 7.388,34.299 7.257,34.019 7.103,33.689 6.942,33.343 6.424,32.285 5.835,31.237 5.168,30.214 5.138,30.167 5.116,30.131 5.089,30.089 3.734,28 2.088,26.016 0.306,24.116 L -3.878,19.997 C -5.15,18.846 -6.459,17.721 -7.8,16.626 -8.738,15.87 -9.703,15.14 -10.668,14.41 c -0.951,-0.72 -1.917,-1.425 -2.892,-2.121 -2.839,-2.027 -5.767,-3.958 -8.762,-5.799 l -2.299,-1.388 c -3.773,-2.268 -7.632,-4.404 -11.544,-6.436 l -0.919,-0.478 c -3.982,-2.045 -8.02,-3.98 -12.092,-5.807 -0.383,-0.171 -0.763,-0.348 -1.147,-0.518 -2.849,-1.263 -5.711,-2.483 -8.579,-3.652 -8.935,-3.617 -17.935,-6.875 -26.836,-9.717 -0.315,-0.101 -0.626,-0.193 -0.94,-0.293 -2.751,-0.869 -5.494,-1.71 -8.219,-2.497 -2.96,-0.845 -5.894,-1.65 -8.803,-2.418 -0.05,-0.013 -0.1,-0.027 -0.149,-0.04 -8.335,-2.196 -16.456,-4.053 -24.397,-5.579 l -2.446,-0.461 -1.778,-0.335 0.889,-5.173 0.005,-0.028 1.655,0.258 c 0.394,0.058 0.776,0.103 1.171,0.162 0.504,0.079 1.023,0.177 1.529,0.259 l 2.666,0.415 -0.005,0.035 c 2.352,0.397 4.72,0.816 7.112,1.267 l 0.007,-0.032 4.968,0.994 c 0.405,0.082 0.801,0.15 1.208,0.233 0.099,0.021 0.202,0.048 0.302,0.069 l 0.49,0.098 -0.003,0.012 c 2.328,0.492 4.683,1.03 7.047,1.594 l 0.006,-0.024 6.896,1.713 -0.008,0.03 c 1.096,0.282 2.197,0.547 3.289,0.835 1.226,0.335 2.463,0.702 3.693,1.049 l 0.01,-0.033 6.824,1.979 -0.008,0.026 c 2.3,0.69 4.604,1.4 6.911,2.142 l 0.005,-0.015 0.69,0.231 1.143,0.382 4.904,1.637 -0.014,0.038 c 2.272,0.788 4.541,1.61 6.811,2.463 l 0.017,-0.043 6.62,2.578 -0.008,0.021 c 2.238,0.902 4.472,1.846 6.704,2.804 l 0.015,-0.033 1.462,0.651 1.093,0.486 3.114,1.386 h 12.506 v 6.116 l 1.213,0.621 -0.007,0.013 c 1.422,0.757 2.819,1.569 4.221,2.37 v -3.693 c 0,-3.618 1.809,-5.427 5.428,-5.427 H 7.235 c 3.618,0 5.427,1.809 5.427,5.427 v 28.039 c 0,2.339 -0.8,3.888 -2.333,4.714 0.043,0.063 0.092,0.119 0.135,0.183 l 0.046,-0.032 c 0,0 0.124,0.206 0.317,0.527 0.026,0.042 0.059,0.076 0.085,0.118 0.514,0.798 1.004,1.624 1.469,2.472 0.081,0.134 0.162,0.268 0.243,0.404 0.232,0.428 0.383,0.813 0.567,1.197 0.012,0.026 0.021,0.046 0.033,0.072 0.163,0.341 0.322,0.683 0.473,1.032 0.257,0.562 0.429,0.938 0.429,0.938 l -0.053,0.024 c 0.495,1.275 0.932,2.585 1.215,3.977 0.298,1.391 0.372,2.871 0.326,4.441 l 0.094,0.002 c 0,0 -0.053,0.6 -0.134,1.499 -0.003,0.029 -0.007,0.064 -0.01,0.093" /></g><g
       transform="matrix(1.3333333,0,0,-1.3333333,286.20986,593.76414)"
       id="g390"
       clip-path="url(#clipPath37)"><path
         id="path392"
         style="fill:#404041;fill-opacity:1;fill-rule:nonzero;stroke:none"
         d="m 0,0 -7.036,-1.002 0.589,-4.754 V -5.76 l 0.127,0.013 c 0.079,0.007 0.154,0.01 0.233,0.017 0.44,0.042 0.897,0.105 1.339,0.149 l 5.369,0.566 -0.004,0.029 z" /></g><g
       transform="matrix(1.3333333,0,0,-1.3333333,267.58826,596.21001)"
       id="g394"
       clip-path="url(#clipPath36)"><path
         id="path396"
         style="fill:#404041;fill-opacity:1;fill-rule:nonzero;stroke:none"
         d="m 0,0 -7.078,-0.643 0.284,-4.146 10e-4,-0.015 7.099,0.332 -0.001,0.017 z" /></g><g
       transform="matrix(1.3333333,0,0,-1.3333333,247.33866,597.65641)"
       id="g398"
       clip-path="url(#clipPath35)"><path
         id="path400"
         style="fill:#404041;fill-opacity:1;fill-rule:nonzero;stroke:none"
         d="m 0,0 c -0.271,-0.01 -0.529,-0.01 -0.799,-0.02 l -5.159,-0.126 0.003,-3.492 v -0.036 l 4.062,-0.09 2.372,-0.052 0.672,-0.015 V -3.81 L 1.149,0.028 Z" /></g><g
       transform="matrix(1.3333333,0,0,-1.3333333,220.32906,600.72734)"
       id="g402"
       clip-path="url(#clipPath34)"><path
         id="path404"
         style="fill:#f05a28;fill-opacity:1;fill-rule:nonzero;stroke:none"
         d="M 0,0 -0.001,-0.006 0.462,-0.062 6.665,-0.814 7.058,-0.862 7.06,-0.843 7.341,2.222 0.242,2.648 Z" /></g><g
       transform="matrix(1.3333333,0,0,-1.3333333,202.68986,594.26081)"
       id="g406"
       clip-path="url(#clipPath33)"><path
         id="path408"
         style="fill:#f05a28;fill-opacity:1;fill-rule:nonzero;stroke:none"
         d="M 0,0 -0.379,0.078 -0.798,-1.654 -0.802,-1.672 -0.53,-1.746 C 1.367,-2.353 3.399,-2.898 5.531,-3.39 l 0.531,-0.144 0.006,0.024 0.519,2.146 -0.671,0.139 z" /></g><g
       transform="matrix(1.3333333,0,0,-1.3333333,189.5992,589.43627)"
       id="g410"
       clip-path="url(#clipPath32)"><path
         id="path412"
         style="fill:#f05a28;fill-opacity:1;fill-rule:nonzero;stroke:none"
         d="m 0,0 c -0.174,0.091 -0.354,0.179 -0.523,0.272 -0.726,0.397 -1.391,0.809 -2.024,1.226 -0.455,0.277 -0.756,0.46 -0.756,0.46 L -3.816,1.291 -3.835,1.266 c 0,0 0.24,-0.175 0.615,-0.448 0.095,-0.069 0.192,-0.14 0.304,-0.222 0.534,-0.378 1.232,-0.915 1.96,-1.398 0.03,-0.019 0.056,-0.04 0.085,-0.059 0.084,-0.047 0.167,-0.092 0.25,-0.139 0.727,-0.448 1.51,-0.878 2.334,-1.292 0.323,-0.179 0.526,-0.292 0.526,-0.292 l 0.011,0.022 0.618,1.194 c 0,0 -0.289,0.138 -0.732,0.349 C 1.594,-0.76 0.816,-0.389 0,0" /></g><g
       transform="matrix(1.3333333,0,0,-1.3333333,178.0276,579.07054)"
       id="g414"
       clip-path="url(#clipPath31)"><path
         id="path416"
         style="fill:#f05a28;fill-opacity:1;fill-rule:nonzero;stroke:none"
         d="m 0,0 c -0.273,0.483 -0.484,0.92 -0.611,1.28 -0.306,0.747 -0.463,1.132 -0.463,1.132 0,0 0.263,-0.862 0.527,-1.726 0.126,-0.279 0.246,-0.546 0.358,-0.793 0.015,-0.034 0.029,-0.066 0.044,-0.098 0.191,-0.426 0.335,-0.746 0.335,-0.746 l 0.055,0.028 0.208,0.103 c 0,0 -0.168,0.305 -0.392,0.709 C 0.039,-0.072 0.022,-0.038 0,0" /></g><g
       transform="matrix(1.3333333,0,0,-1.3333333,148.81573,510.68907)"
       id="g418"
       clip-path="url(#clipPath30)"><path
         id="path420"
         style="fill:#404041;fill-opacity:1;fill-rule:nonzero;stroke:none"
         d="m 0,0 h 19.898 l 5.427,10.854 h -34.37 c -3.618,0 -5.427,-1.508 -5.427,-4.523 v -19.898 c 0,-3.618 1.809,-5.427 5.427,-5.427 h 19.899 c 1.205,0 1.809,-0.605 1.809,-1.809 v -7.237 c 0,-1.207 -0.604,-1.809 -1.809,-1.809 H -8.141 l -6.331,-10.854 h 34.37 c 3.618,0 5.427,1.809 5.427,5.427 v 18.995 c 0,3.618 -1.809,5.427 -5.427,5.427 H 0 c -1.207,0 -1.809,0.603 -1.809,1.809 v 7.236 C -1.809,-0.603 -1.207,0 0,0" /></g><g
       transform="matrix(1.3333333,0,0,-1.3333333,240.32706,564.95961)"
       id="g422"
       clip-path="url(#clipPath29)"><path
         id="path424"
         style="fill:#404041;fill-opacity:1;fill-rule:nonzero;stroke:none"
         d="M 0,0 -10.745,22.612 0.108,38.894 H -14.363 L -24.314,22.612 -14.363,0 Z" /></g><path
       id="path426"
       style="fill:#404041;fill-opacity:1;fill-rule:nonzero;stroke:none;stroke-width:1.33333"
       d="M 206.70399,496.21734 H 189.82 v 68.74267 h 16.88399 z"
       clip-path="url(#clipPath28)" /><path
       id="path428"
       style="fill:#404041;fill-opacity:1;fill-rule:nonzero;stroke:none;stroke-width:1.33333"
       d="m 264.59066,513.10134 h -16.884 v 51.85867 h 16.884 z"
       clip-path="url(#clipPath27)" /><path
       id="path430"
       style="fill:#404041;fill-opacity:1;fill-rule:nonzero;stroke:none;stroke-width:1.33333"
       d="m 264.59066,496.21734 h -16.884 v 12.06 h 16.884 z"
       clip-path="url(#clipPath26)" /><path
       id="path432"
       style="fill:#404041;fill-opacity:1;fill-rule:nonzero;stroke:none;stroke-width:1.33333"
       d="m 271.82799,564.96001 h 16.884 v -68.74267 h -16.884 z"
       clip-path="url(#clipPath25)" /><path
       id="path434"
       style="fill:#404041;fill-opacity:1;fill-rule:nonzero;stroke:none;stroke-width:1.33333"
       d="m 312.83199,496.21734 h -16.884 v 68.74267 h 16.884 z"
       clip-path="url(#clipPath24)" /><g
       transform="matrix(1.3333333,0,0,-1.3333333,353.83732,550.48721)"
       id="g436"
       clip-path="url(#clipPath23)"><path
         id="path438"
         style="fill:#f05a28;fill-opacity:1;fill-rule:nonzero;stroke:none"
         d="m 0,0 h -18.996 l -6.331,-10.854 H 9.044 c 3.618,0 5.427,1.809 5.427,5.427 v 18.994 c 0,3.618 -1.809,5.427 -5.427,5.427 h -19.898 c -1.207,0 -1.809,0.603 -1.809,1.809 v 7.237 c 0,1.206 0.602,1.809 1.809,1.809 H 9.044 l 5.427,10.854 h -34.37 c -3.619,0 -5.428,-1.508 -5.428,-4.523 V 16.281 c 0,-3.618 1.809,-5.427 5.428,-5.427 H 0 c 1.205,0 1.809,-0.604 1.809,-1.809 V 1.809 C 1.809,0.602 1.205,0 0,0" /></g><g
       transform="matrix(1.3333333,0,0,-1.3333333,420.40066,547.76921)"
       id="g440"
       clip-path="url(#clipPath21)"><path
         id="path442"
         style="fill:#f05a28;fill-opacity:1;fill-rule:nonzero;stroke:none"
         d="m 0,0 0.914,0.475 c 2.472,1.283 4.799,2.55 7.05,3.824 v 16.275 c -0.023,3.618 -1.832,5.427 -5.427,5.427 h -19.898 v 12.663 h -12.663 v -51.557 h 0.744 c 2.525,0.961 5.047,1.943 7.56,2.96 1.454,0.593 2.901,1.234 4.353,1.853 l -0.03,23.227 h 10.89 c 1.182,0 1.785,-0.603 1.809,-1.809 V -2.333 C -3.118,-1.563 -1.539,-0.79 0,0" /></g><g
       transform="matrix(1.3333333,0,0,-1.3333333,451.56692,529.08947)"
       id="g444"
       clip-path="url(#clipPath19)"><path
         id="path446"
         style="fill:#f05a28;fill-opacity:1;fill-rule:nonzero;stroke:none"
         d="m 0,0 c 0.966,0.69 1.923,1.386 2.864,2.101 0.957,0.722 1.913,1.446 2.839,2.193 1.321,1.078 2.614,2.189 3.87,3.327 l 4.149,4.084 c 0.09,0.097 0.169,0.19 0.258,0.286 H -4.556 C -8.174,11.967 -9.983,10.158 -9.983,6.564 V -6.532 l 1.297,0.783 C -5.668,-3.894 -2.743,-1.959 0,0" /></g><g
       transform="matrix(1.3333333,0,0,-1.3333333,525.08865,513.10121)"
       id="g448"
       clip-path="url(#clipPath18)"><path
         id="path450"
         style="fill:#f05a28;fill-opacity:1;fill-rule:nonzero;stroke:none"
         d="M 0,0 V 8.14 H -12.7 L -12.663,0 h -9.045 v -9.949 h 9.045 V -38.894 H 0 V -9.949 H 9.044 V 0 Z" /></g></g></svg>
